PathFileType	4	(X/Y/Z)	D:\TRACE\spotREDO_2-26-24\spot_Both_Motion_1_7-platform.trc
DataRate	CameraRate	NumFrames	NumMarkers	Units	OrigDataRate	OrigDataStartFrame	OrigNumFrames
100.00	100.00	      36	5	mm	100.00	6126	      7000
Frame#	Time	Left_Front			Right_Front			Left_Aft			Right_Aft			Post			
		X1	Y1	Z1	X2	Y2	Z2	X3	Y3	Z3	X4	Y4	Z4	X5	Y5	Z5	

6126	61.250	-715.85822	14.74717	-570.76453	699.03839	21.06144	-486.15582	-787.10809	-15.58304	647.85553	783.34869	-7.94476	651.42352	-6.58841	654.09454	-958.02197	
6127	61.260	-714.86523	14.43636	-570.85504	699.92578	20.57731	-486.11771	-785.91663	-15.06778	647.64191	784.24506	-7.46639	651.52655	-5.72812	653.63135	-958.36194	
6128	61.270	-714.08606	14.41341	-570.92932	700.86359	20.42920	-486.39191	-785.12402	-14.63448	647.61414	785.30225	-6.98176	651.52283	-4.77825	653.11011	-958.65436	
6129	61.280	-713.44940	14.05932	-571.00757	701.51385	20.20942	-486.59488	-784.25171	-14.27625	647.61163	786.08087	-6.69329	651.37408	-3.72569	652.53998	-958.88464	
6130	61.290	-712.27338	13.61301	-571.11877	702.43048	19.77834	-486.58557	-783.67596	-14.02394	647.50110	787.30237	-6.47969	651.33032	-3.20648	652.23285	-959.41193	
6131	61.300	-711.37811	13.24743	-571.12793	703.45447	19.48583	-486.66653	-782.41254	-13.64104	647.51611	787.84369	-6.47539	651.39508	-1.98010	651.51776	-959.86243	
6132	61.310	-710.65192	12.66249	-571.41687	704.28656	19.11591	-486.59161	-781.83197	-13.54682	647.23126	788.67584	-5.56995	651.42877	-1.42648	651.08392	-959.95850	
6133	61.320	-709.44165	12.32419	-571.43762	705.34039	18.88026	-486.69742	-780.70837	-12.81245	647.23230	789.71667	-5.50393	650.97571	-0.39921	650.64063	-960.44586	
6134	61.330	-708.45636	11.95881	-571.64258	706.28583	18.64803	-486.76349	-779.63263	-12.37207	647.18134	790.58807	-4.83299	650.94287	0.76770	650.11835	-960.94598	
6135	61.340	-707.42371	11.68460	-571.62274	707.36798	18.46042	-486.89426	-779.01355	-12.32450	646.95135	791.55823	-4.71094	650.97394	1.85540	649.31470	-961.22357	
6136	61.350	-706.85950	11.44258	-571.33649	708.20679	18.24297	-486.98355	-778.11426	-11.90504	646.96552	792.59314	-4.39162	650.82983	2.66986	648.71216	-962.07892	
6137	61.360	-705.71124	10.84009	-571.51837	708.87427	17.94227	-487.21292	-777.05872	-11.66095	646.87555	793.36554	-4.09047	650.73676	3.14840	648.35236	-962.35413	
6138	61.370	-704.93170	10.64226	-571.60223	710.05811	17.52955	-487.09625	-776.10443	-11.47467	646.86053	794.42700	-3.89682	650.65204	4.08668	647.82446	-963.21790	
6139	61.380	-703.92566	10.37121	-571.62329	711.07574	17.42483	-487.13812	-775.29980	-10.91488	646.78870	795.66223	-3.18132	650.69067	5.17515	647.15356	-963.74585	
6140	61.390	-703.15088	10.22458	-571.76117	711.59424	17.51201	-487.49698	-774.32092	-10.63569	646.66681	796.34930	-2.99027	650.52618	6.03011	646.67279	-964.10571	
6141	61.400	-701.99249	9.83407	-572.05090	713.02222	16.85019	-487.44049	-773.20013	-10.28600	646.51031	796.90955	-2.70362	650.45862	7.21061	646.12817	-964.60602	
6142	61.410	-700.95282	9.32053	-572.16718	713.81598	16.60591	-487.45911	-772.41418	-10.07136	646.47601	798.17126	-2.26592	650.35632	7.87371	645.74323	-964.75781	
6143	61.420	-700.22998	9.08589	-572.28711	714.64929	16.18935	-487.64511	-771.46655	-9.74996	646.30188	799.06995	-1.76797	650.32581	9.13105	645.27527	-965.16479	
6144	61.430	-698.99866	8.84975	-572.23694	715.74805	15.88980	-487.67798	-770.45441	-9.11727	646.31287	800.04199	-1.34925	650.31519	10.06680	644.59741	-965.50360	
6145	61.440	-698.25977	8.61527	-572.34229	716.67682	15.58420	-487.64789	-769.61597	-8.73736	646.34772	800.98718	-1.07403	650.14063	11.13886	643.91846	-965.71014	
6146	61.450	-697.34534	8.02087	-572.44342	717.69348	15.31104	-487.85229	-768.68201	-8.56917	646.17950	801.99707	-0.84740	650.19354	12.13985	643.52472	-966.08997	
6147	61.460	-696.29126	7.61349	-572.55768	718.46124	14.97180	-487.91318	-767.56415	-8.29395	646.06641	803.13342	-0.52045	650.18860	12.93856	643.10828	-966.43152	
6148	61.470	-695.26282	7.40529	-572.59668	719.66333	14.78706	-488.01044	-766.65491	-7.94484	645.84601	803.89526	-0.01944	649.97626	13.79062	642.40900	-967.10583	
6149	61.480	-694.43842	7.28124	-572.71735	720.40613	14.71194	-488.17313	-765.87189	-7.19864	645.77734	804.73700	0.29037	649.78864	15.10663	641.89825	-967.57813	
6150	61.490	-693.49286	7.00662	-572.77936	721.34369	14.26160	-488.19125	-764.72736	-6.82001	645.72437	805.79437	0.81904	649.70471	15.90398	641.36523	-968.07953	
6151	61.500	-692.37372	6.36898	-572.96118	722.72992	14.09468	-488.37091	-763.82520	-6.50942	645.76965	806.99323	1.21428	649.74023	16.79516	640.56079	-968.84143	
6152	61.510	-691.46490	6.06759	-573.03369	723.41876	13.88899	-488.53595	-762.89392	-6.13767	645.71368	807.71021	1.51088	649.57452	17.67619	639.93225	-969.45947	
6153	61.520	-690.45575	5.65145	-573.08813	724.31396	13.49469	-488.69708	-761.77557	-5.69828	645.47797	808.84705	1.83816	649.43384	18.68016	639.46570	-970.04187	
6154	61.530	-689.77069	5.35361	-573.27649	725.46130	13.36245	-488.77139	-760.88922	-5.41338	645.40442	809.77594	2.30268	649.48096	19.66064	638.87885	-970.25293	
6155	61.540	-688.45795	5.02154	-573.15228	726.42273	12.88674	-488.62888	-759.89063	-5.22355	645.35248	810.43164	2.55868	649.39270	20.86460	638.15497	-970.90332	
6156	61.550	-687.55371	4.80002	-573.66174	727.21722	12.78228	-488.95059	-758.56396	-4.85865	645.44659	811.63483	3.14980	649.22284	21.64998	637.76648	-971.18152	
6157	61.560	-686.45013	4.48065	-573.78644	728.10608	12.30104	-488.96396	-757.72217	-4.45311	645.25378	812.57037	3.68376	649.31927	22.55627	637.18597	-971.58752	
6158	61.570	-685.42688	3.90531	-573.77820	729.38043	11.78580	-488.84534	-757.07794	-4.13312	645.22937	813.52765	3.77038	649.22980	23.73890	636.60394	-972.27362	
6159	61.580	-684.79437	3.64683	-573.74518	730.15912	11.49406	-489.18411	-755.91510	-3.79580	645.08960	814.35486	4.02858	648.94690	24.61670	636.06726	-972.38184	
6160	61.590	-683.67645	3.25445	-573.85730	731.02307	11.20428	-489.19186	-754.81134	-3.53588	644.93042	815.35315	4.48462	648.88135	25.59435	635.56812	-972.83270	
6161	61.600	-682.61615	2.93356	-573.86420	732.23871	10.99252	-489.16739	-754.01941	-3.04656	644.92706	816.52301	5.00831	648.80231	26.56944	634.94769	-973.13721	
